<?xml version="1.0" encoding="UTF-8" standalone="no"?>
<!-- Created with Inkscape (http://www.inkscape.org/) -->

<svg
   width="172.5701mm"
   height="50.565052mm"
   viewBox="0 0 172.5701 50.565052"
   version="1.1"
   id="svg1"
   inkscape:version="1.4.2 (1:1.4.2+202505120737+ebf0e940d0)"
   sodipodi:docname="biome_logo.svg"
   xmlns:inkscape="http://www.inkscape.org/namespaces/inkscape"
   xmlns:sodipodi="http://sodipodi.sourceforge.net/DTD/sodipodi-0.dtd"
   xmlns:xlink="http://www.w3.org/1999/xlink"
   xmlns="http://www.w3.org/2000/svg"
   xmlns:svg="http://www.w3.org/2000/svg">
  <sodipodi:namedview
     id="namedview1"
     pagecolor="#ffffff"
     bordercolor="#666666"
     borderopacity="1.0"
     inkscape:showpageshadow="2"
     inkscape:pageopacity="0.0"
     inkscape:pagecheckerboard="true"
     inkscape:deskcolor="#d1d1d1"
     inkscape:document-units="mm"
     showgrid="false"
     inkscape:zoom="0.51087175"
     inkscape:cx="178.1269"
     inkscape:cy="14.680788"
     inkscape:window-width="1920"
     inkscape:window-height="1020"
     inkscape:window-x="1920"
     inkscape:window-y="0"
     inkscape:window-maximized="1"
     inkscape:current-layer="layer1">
    <inkscape:grid
       id="grid1"
       units="mm"
       originx="-12.615677"
       originy="-103.06296"
       spacingx="0.26458333"
       spacingy="0.26458334"
       empcolor="#3f3fff"
       empopacity="0.25098039"
       color="#3f3fff"
       opacity="0.1254902"
       empspacing="5"
       enabled="true"
       visible="false" />
  </sodipodi:namedview>
  <defs
     id="defs1">
    <linearGradient
       id="linearGradient26"
       inkscape:collect="always">
      <stop
         style="stop-color:#1e758e;stop-opacity:0;"
         offset="0"
         id="stop28" />
      <stop
         style="stop-color:#1e758e;stop-opacity:1;"
         offset="1"
         id="stop27" />
    </linearGradient>
    <linearGradient
       id="linearGradient24"
       inkscape:collect="always">
      <stop
         style="stop-color:#00a326;stop-opacity:1;"
         offset="0.37975609"
         id="stop24" />
      <stop
         style="stop-color:#1f7993;stop-opacity:1;"
         offset="0.48380119"
         id="stop26" />
      <stop
         style="stop-color:#114757;stop-opacity:1;"
         offset="0.72618121"
         id="stop25" />
    </linearGradient>
    <inkscape:path-effect
       effect="fillet_chamfer"
       id="path-effect18"
       is_visible="true"
       lpeversion="1"
       nodesatellites_param="F,0,0,1,0,0,0,1 @ F,0,0,1,0,0,0,1 @ F,0,0,1,0,0,0,1 @ F,0,0,1,0,0.6198964,0,1 @ F,0,0,1,0,0.68037396,0,1 @ F,0,0,1,0,0,0,1 @ F,0,0,1,0,1.5564379,0,1 @ F,0,0,1,0,0,0,1 @ F,0,0,1,0,1.061692,0,1 @ F,0,0,1,0,0,0,1 @ F,0,0,1,0,1.2372213,0,1 @ F,0,0,1,0,1.4545687,0,1 @ F,0,0,1,0,1.4477028,0,1 @ F,0,0,1,0,1.3066701,0,1 @ F,0,0,1,0,1.3066701,0,1 @ F,0,0,1,0,1.1766532,0,1 @ F,0,0,1,0,0,0,1 @ F,0,0,1,0,0.97438793,0,1 @ F,0,0,1,0,0.79652554,0,1 @ F,0,0,1,0,1.4654964,0,1"
       radius="0"
       unit="px"
       method="auto"
       mode="F"
       chamfer_steps="1"
       flexible="false"
       use_knot_distance="true"
       apply_no_radius="true"
       apply_with_radius="true"
       only_selected="false"
       hide_knots="false" />
    <inkscape:path-effect
       effect="fillet_chamfer"
       id="path-effect17"
       is_visible="true"
       lpeversion="1"
       nodesatellites_param="F,0,0,1,0,1.7995709,0,1 @ F,0,0,1,0,1.1805902,0,1 @ F,0,0,1,0,1.2803224,0,1 @ F,0,0,1,0,1.6367576,0,1"
       radius="0"
       unit="px"
       method="auto"
       mode="F"
       chamfer_steps="1"
       flexible="false"
       use_knot_distance="true"
       apply_no_radius="true"
       apply_with_radius="true"
       only_selected="false"
       hide_knots="false" />
    <inkscape:path-effect
       effect="fillet_chamfer"
       id="path-effect16"
       is_visible="true"
       lpeversion="1"
       nodesatellites_param="F,0,0,1,0,0,0,1 @ F,0,0,1,0,0,0,1 @ F,0,0,1,0,0,0,1 @ F,0,0,1,0,0,0,1 @ F,0,0,1,0,0,0,1 @ F,0,0,1,0,0,0,1 @ F,0,0,1,0,2.9635338,0,1 @ F,0,0,1,0,0,0,1 @ F,0,0,1,0,0,0,1 @ F,0,0,1,0,0,0,1 @ F,0,0,1,0,0,0,1 @ F,0,0,1,0,0,0,1 @ F,0,0,1,0,0,0,1 @ F,0,0,1,0,0,0,1 @ F,0,0,1,0,0,0,1 @ F,0,0,1,0,0,0,1 | F,0,0,1,0,0,0,1 @ F,0,0,1,0,0,0,1 @ F,0,0,1,0,0,0,1 @ F,0,0,1,0,0,0,1 @ F,0,0,1,0,0,0,1 @ F,0,0,1,0,0,0,1 @ F,0,0,1,0,0,0,1 | F,0,0,1,0,0,0,1 @ F,0,0,1,0,0,0,1 @ F,0,0,1,0,0,0,1 @ F,0,0,1,0,0,0,1 @ F,0,0,1,0,0,0,1 @ F,0,0,1,0,0,0,1 @ F,0,0,1,0,0,0,1 @ F,0,0,1,0,0,0,1"
       radius="0"
       unit="px"
       method="auto"
       mode="F"
       chamfer_steps="1"
       flexible="false"
       use_knot_distance="true"
       apply_no_radius="true"
       apply_with_radius="true"
       only_selected="false"
       hide_knots="false" />
    <inkscape:path-effect
       effect="fillet_chamfer"
       id="path-effect15"
       is_visible="true"
       lpeversion="1"
       nodesatellites_param="F,0,0,1,0,2.6743934,0,1 @ F,0,0,1,0,0,0,1 @ F,0,0,1,0,3.4543928,0,1 @ F,0,0,1,0,2.6295115,0,1"
       radius="0"
       unit="px"
       method="auto"
       mode="F"
       chamfer_steps="1"
       flexible="false"
       use_knot_distance="true"
       apply_no_radius="true"
       apply_with_radius="true"
       only_selected="false"
       hide_knots="false" />
    <rect
       x="113.49767"
       y="182.70357"
       width="499.6666"
       height="492.746"
       id="rect14" />
    <inkscape:path-effect
       effect="fill_between_many"
       method="originald"
       linkedpaths="#path4,0,1"
       id="path-effect11"
       is_visible="true"
       lpeversion="0"
       join="true"
       close="true"
       autoreverse="true" />
    <linearGradient
       inkscape:collect="always"
       xlink:href="#linearGradient24"
       id="linearGradient25"
       x1="25.726885"
       y1="174.06973"
       x2="172.07484"
       y2="82.621376"
       gradientUnits="userSpaceOnUse"
       spreadMethod="pad" />
    <linearGradient
       inkscape:collect="always"
       xlink:href="#linearGradient26"
       id="linearGradient28"
       x1="95.398575"
       y1="112.05595"
       x2="95.398575"
       y2="140.25238"
       gradientUnits="userSpaceOnUse" />
  </defs>
  <g
     inkscape:label="Calque 1"
     inkscape:groupmode="layer"
     id="layer1"
     transform="translate(-12.615676,-103.06296)">
    <path
       id="path2"
       style="fill:url(#linearGradient25);fill-opacity:1;stroke:none;stroke-width:0.278747;stroke-linecap:butt;stroke-linejoin:round;stroke-miterlimit:16.6;stroke-dasharray:none;stroke-opacity:1"
       d="M 90.503945 103.06296 L 90.766978 103.1968 C 90.475452 103.18668 90.182339 103.18182 89.888479 103.18182 C 76.025544 103.18182 64.667796 114.53957 64.667796 128.4025 C 64.667796 142.26544 76.025544 153.62318 89.888479 153.62318 C 103.75142 153.62318 115.11123 142.26544 115.11123 128.4025 C 115.11123 121.55699 112.34121 115.32218 107.86774 110.7643 L 115.48175 110.7643 L 115.48175 152.93899 A 0.6198964 0.6198964 0 0 0 116.10187 153.5591 L 126.33638 153.5591 A 0.68037396 0.68037396 0 0 0 127.01645 152.87852 L 127.01645 121.57811 L 136.66185 131.22403 A 1.5564393 1.5564393 0 0 0 138.86327 131.22403 L 148.1211 121.96672 L 148.1211 152.49715 A 1.061692 1.061692 0 0 0 149.18305 153.5591 L 158.73802 153.5591 L 183.94837 153.57512 A 1.236431 1.236431 0 0 0 185.18602 152.33902 L 185.18602 144.35191 A 1.4545687 1.4545687 0 0 0 183.73133 142.89774 L 160.71516 142.89774 A 1.4477028 1.4477028 0 0 1 159.26719 141.44976 L 159.26719 115.07876 A 1.3066701 1.3066701 0 0 1 160.57409 113.77187 L 183.84502 113.77187 A 1.3066701 1.3066701 0 0 0 185.1514 112.46549 L 185.1514 104.24015 A 1.1759139 1.1759139 0 0 0 183.97473 103.06399 L 158.73802 103.08001 L 149.07195 103.08001 A 2.2360653 2.2360653 0 0 0 147.4338 103.79366 L 138.30516 113.61477 A 0.76795236 0.76795236 0 0 1 137.19929 113.63492 L 127.66395 104.09907 A 3.5378961 3.5378961 0 0 0 125.16229 103.06296 L 90.503945 103.06296 z M 15.594306 103.1167 A 2.9788049 2.9788049 0 0 0 12.615676 106.09533 L 12.615676 153.58132 L 33.619562 153.62783 C 34.703832 153.6302 35.102499 153.62301 35.340904 153.58546 C 43.729055 153.5821 52.117144 153.60769 60.505259 153.58804 C 62.413004 153.58785 63.95941 151.94974 63.959312 150.042 L 63.959312 127.37879 C 63.959194 125.92772 62.781082 124.75238 61.330015 124.75569 L 53.310866 124.77481 C 51.832969 124.77881 50.636742 125.97737 50.636611 127.45527 L 50.636611 145.20406 L 50.06817 145.20406 C 50.088017 143.22765 50.118813 141.02408 50.118813 138.79876 C 50.118813 136.10439 49.535738 133.93194 48.3706 132.28133 C 47.229736 130.63072 45.773338 129.39266 44.001357 128.56735 C 42.253648 127.71776 40.481657 127.14762 38.685403 126.85634 C 41.161323 126.22523 43.32186 125.01148 45.166661 123.21522 C 47.011463 121.41896 47.933934 119.01578 47.933934 116.00584 C 47.933934 112.72888 47.035778 110.156 45.239524 108.28693 C 43.467543 106.39358 41.112993 105.05826 38.175873 104.28149 C 35.263026 103.50474 32.070855 103.1167 28.599713 103.1167 L 15.594306 103.1167 z M 57.31579 105.97906 A 7.7202358 7.7202358 0 0 0 49.595331 113.69952 A 7.7202358 7.7202358 0 0 0 57.31579 121.41946 A 7.7202358 7.7202358 0 0 0 65.035732 113.69952 A 7.7202358 7.7202358 0 0 0 57.31579 105.97906 z M 24.5581 111.56373 L 28.235911 111.56373 C 30.857473 111.56373 32.787265 112.0128 34.025222 112.91094 C 35.287456 113.78479 35.918646 115.21686 35.918646 117.20732 C 35.918646 119.3434 35.336087 120.88465 34.170949 121.83132 C 33.030086 122.778 31.172729 123.25139 28.599713 123.25139 L 24.5581 123.25139 L 24.5581 111.56373 z M 89.888479 114.41421 C 97.68038 114.41421 103.87677 120.6106 103.87677 128.4025 C 103.87677 136.1944 97.68038 142.39079 89.888479 142.39079 C 82.096578 142.39079 75.900185 136.1944 75.900185 128.4025 C 75.900185 120.6106 82.096578 114.41421 89.888479 114.41421 z M 166.15617 124.32885 A 1.1793016 1.1793016 0 0 0 164.97537 125.5081 L 164.97537 130.96875 A 1.284382 1.284382 0 0 0 166.25591 132.25291 L 177.80611 132.2896 A 1.6315842 1.6315842 0 0 0 179.4427 130.65817 L 179.4427 126.14269 A 1.8015373 1.8015373 0 0 0 177.64333 124.34125 L 166.15617 124.32885 z M 24.5581 131.26176 L 29.473562 131.26176 C 31.998028 131.26176 34.013182 131.77187 35.518154 132.79138 C 37.047396 133.81087 37.811554 135.65531 37.811554 138.32541 C 37.811554 140.14595 37.39921 141.5299 36.573904 142.47657 C 35.748598 143.42326 34.65643 144.06634 33.297101 144.40617 C 31.962048 144.72172 30.517551 144.87953 28.964032 144.87953 L 24.5581 144.87953 L 24.5581 131.26176 z " />
    <text
       xml:space="preserve"
       style="font-size:3.52777px;line-height:1.25;font-family:sans-serif;-inkscape-font-specification:sans-serif;letter-spacing:0px;word-spacing:0px;stroke-width:0.264583"
       x="40.137684"
       y="78.462692"
       id="text13"><tspan
         sodipodi:role="line"
         id="tspan13"
         style="stroke-width:0.264583"
         x="40.137684"
         y="78.462692" /></text>
    <path
       style="fill:#00a326;fill-opacity:1;stroke:none;stroke-width:0.264583px;stroke-linecap:butt;stroke-linejoin:miter;stroke-opacity:1"
       d="m 98.386954,117.29504 c -2.105734,-1.78529 -17.41468,-7.83537 -22.325255,8.45333 -1.886609,8.78915 5.18065,13.91589 5.18065,13.91589 l -6.28379,8.90965 c -3.130351,-9.24752 -6.766985,-18.08501 -3.459369,-25.36693 5.88136,-12.94817 22.519587,-11.65472 26.887764,-5.91194 z"
       id="path25"
       sodipodi:nodetypes="ccccsc" />
    <path
       style="fill:url(#linearGradient28);fill-opacity:1;stroke:none;stroke-width:0.264583px;stroke-linecap:butt;stroke-linejoin:miter;stroke-opacity:1"
       d="m 81.300363,139.71232 c 2.10574,1.78529 17.41468,7.83537 22.325247,-8.45333 1.88661,-8.78915 -5.180647,-13.91589 -5.180647,-13.91589 l 6.283787,-8.90965 c 3.13036,9.24752 6.76699,18.08501 3.45937,25.36693 -5.88136,12.94817 -22.519577,11.65472 -26.887757,5.91194 z"
       id="path25-3"
       sodipodi:nodetypes="ccccsc" />
  </g>
</svg>
